<?xml version="1.0" encoding="utf-8"?>
<!-- Generator: Adobe Illustrator 15.0.0, SVG Export Plug-In  -->
<!DOCTYPE svg PUBLIC "-//W3C//DTD SVG 1.1//EN" "http://www.w3.org/Graphics/SVG/1.1/DTD/svg11.dtd" [
	<!ENTITY ns_flows "http://ns.adobe.com/Flows/1.0/">
]>
<svg version="1.1"
	 xmlns="http://www.w3.org/2000/svg" xmlns:xlink="http://www.w3.org/1999/xlink" xmlns:a="http://ns.adobe.com/AdobeSVGViewerExtensions/3.0/"
	 x="0px" y="0px" width="44px" height="60px" viewBox="0 0 44 60" enable-background="new 0 0 44 60" xml:space="preserve">
<defs>
</defs>
<g>
	<defs>
		<rect id="SVGID_1_" width="44" height="60"/>
	</defs>
	<clipPath id="SVGID_2_">
		<use xlink:href="#SVGID_1_"  overflow="visible"/>
	</clipPath>
	<path clip-path="url(#SVGID_2_)" fill="#58595B" d="M43.707,14.293l-14-14C29.52,0.105,29.265,0,29,0H1C0.448,0,0,0.447,0,1v58
		c0,0.553,0.448,1,1,1h42c0.552,0,1-0.447,1-1V15C44,14.734,43.895,14.48,43.707,14.293 M11.217,18h11.349c0.553,0,1,0.447,1,1
		s-0.447,1-1,1H11.217c-0.552,0-1-0.447-1-1S10.665,18,11.217,18 M33.913,52H11.217c-0.552,0-1-0.447-1-1s0.448-1,1-1h22.696
		c0.552,0,1,0.447,1,1S34.465,52,33.913,52 M33.913,44H11.217c-0.552,0-1-0.447-1-1s0.448-1,1-1h22.696c0.552,0,1,0.447,1,1
		S34.465,44,33.913,44 M33.913,36H11.217c-0.552,0-1-0.447-1-1s0.448-1,1-1h22.696c0.552,0,1,0.447,1,1S34.465,36,33.913,36
		 M33.913,28H11.217c-0.552,0-1-0.447-1-1s0.448-1,1-1h22.696c0.552,0,1,0.447,1,1S34.465,28,33.913,28 M29,15V1l14,14H29z"/>
</g>
</svg>
