<?xml version="1.0" encoding="utf-8"?>
<!-- Generator: Adobe Illustrator 15.0.0, SVG Export Plug-In  -->
<!DOCTYPE svg PUBLIC "-//W3C//DTD SVG 1.1//EN" "http://www.w3.org/Graphics/SVG/1.1/DTD/svg11.dtd" [
	<!ENTITY ns_flows "http://ns.adobe.com/Flows/1.0/">
]>
<svg version="1.1"
	 xmlns="http://www.w3.org/2000/svg" xmlns:xlink="http://www.w3.org/1999/xlink" xmlns:a="http://ns.adobe.com/AdobeSVGViewerExtensions/3.0/"
	 x="0px" y="0px" width="48px" height="48px" viewBox="0 0 48 48" enable-background="new 0 0 48 48" xml:space="preserve">
<defs>
</defs>
<g>
	<defs>
		<rect id="SVGID_1_" y="0" width="48" height="48"/>
	</defs>
	<clipPath id="SVGID_2_">
		<use xlink:href="#SVGID_1_"  overflow="visible"/>
	</clipPath>
	<path clip-path="url(#SVGID_2_)" fill="#58595B" d="M24,0C10.767,0,0,10.767,0,24c0,13.234,10.767,24,24,24
		c13.233,0,24-10.767,24-24C48,10.767,37.233,0,24,0 M24,38.5c-1.378,0-2.5-1.121-2.5-2.5s1.122-2.5,2.5-2.5s2.5,1.121,2.5,2.5
		S25.378,38.5,24,38.5 M25,25.929V31c0,0.553-0.448,1-1,1s-1-0.447-1-1v-6c0-0.553,0.448-1,1-1c2.757,0,5-2.243,5-5
		c0-2.757-2.243-5-5-5s-5,2.243-5,5c0,0.553-0.448,1-1,1s-1-0.447-1-1c0-3.859,3.14-7,7-7c3.86,0,7,3.141,7,7
		C31,22.521,28.388,25.443,25,25.929"/>
</g>
</svg>
