<?xml version="1.0" encoding="utf-8"?>
<!-- Generator: Adobe Illustrator 15.0.0, SVG Export Plug-In  -->
<!DOCTYPE svg PUBLIC "-//W3C//DTD SVG 1.1//EN" "http://www.w3.org/Graphics/SVG/1.1/DTD/svg11.dtd" [
	<!ENTITY ns_flows "http://ns.adobe.com/Flows/1.0/">
]>
<svg version="1.1"
	 xmlns="http://www.w3.org/2000/svg" xmlns:xlink="http://www.w3.org/1999/xlink" xmlns:a="http://ns.adobe.com/AdobeSVGViewerExtensions/3.0/"
	 x="0px" y="0px" width="60px" height="46px" viewBox="0 0 60 46" enable-background="new 0 0 60 46" xml:space="preserve">
<defs>
</defs>
<g>
	<defs>
		<rect id="SVGID_1_" width="59.991" height="46.063"/>
	</defs>
	<clipPath id="SVGID_2_">
		<use xlink:href="#SVGID_1_"  overflow="visible"/>
	</clipPath>
	<path clip-path="url(#SVGID_2_)" fill="#58595B" d="M59.518,7.676c-0.943-2.276-2.908-3.582-5.393-3.582
		c-1.086,0-2.221,0.242-3.371,0.719l-33.8,14l-7.457-3.088c-0.249-0.102-0.526-0.101-0.774,0.003l-8.113,3.443
		c-0.308,0.131-0.53,0.407-0.592,0.735c-0.063,0.33,0.044,0.668,0.283,0.901l12.389,12.104c0.288,0.28,0.712,0.361,1.082,0.209
		l17.171-7.113L23.208,44.68c-0.155,0.374-0.069,0.804,0.217,1.09c0.192,0.191,0.448,0.293,0.707,0.293
		c0.129,0,0.259-0.024,0.383-0.076l9.238-3.826c0.218-0.09,0.396-0.254,0.505-0.463l11.263-21.729l9.826-4.069
		C59.214,14.294,60.891,10.99,59.518,7.676"/>
	<path clip-path="url(#SVGID_2_)" fill="#58595B" d="M7.637,5.752l18.292,7.576c0.123,0.051,0.253,0.076,0.383,0.076
		c0.13,0,0.26-0.025,0.383-0.076l9.238-3.826c0.373-0.154,0.617-0.52,0.617-0.924c0-0.404-0.243-0.768-0.617-0.924L17.642,0.077
		c-0.246-0.101-0.52-0.101-0.766,0L7.637,3.904C7.263,4.061,7.02,4.424,7.02,4.829C7.02,5.232,7.264,5.599,7.637,5.752"/>
</g>
</svg>
