<?xml version="1.0" encoding="utf-8"?>
<!-- Generator: Adobe Illustrator 15.0.0, SVG Export Plug-In  -->
<!DOCTYPE svg PUBLIC "-//W3C//DTD SVG 1.1//EN" "http://www.w3.org/Graphics/SVG/1.1/DTD/svg11.dtd" [
	<!ENTITY ns_flows "http://ns.adobe.com/Flows/1.0/">
]>
<svg version="1.1"
	 xmlns="http://www.w3.org/2000/svg" xmlns:xlink="http://www.w3.org/1999/xlink" xmlns:a="http://ns.adobe.com/AdobeSVGViewerExtensions/3.0/"
	 x="0px" y="0px" width="36px" height="60px" viewBox="0 0 36 60" enable-background="new 0 0 36 60" xml:space="preserve">
<defs>
</defs>
<g>
	<defs>
		<rect id="SVGID_1_" width="36" height="60"/>
	</defs>
	<clipPath id="SVGID_2_">
		<use xlink:href="#SVGID_1_"  overflow="visible"/>
	</clipPath>
	<path clip-path="url(#SVGID_2_)" fill="#58595B" d="M31,16h-9V2h3c0.553,0,1-0.447,1-1s-0.447-1-1-1H11c-0.553,0-1,0.447-1,1
		s0.447,1,1,1h3v14H5c-2.757,0-5,2.243-5,5v32c0,2.757,2.243,5,5,5h3v1c0,0.553,0.447,1,1,1s1-0.447,1-1v-1h16v1
		c0,0.553,0.447,1,1,1s1-0.447,1-1v-1h3c2.757,0,5-2.243,5-5V21C36,18.243,33.757,16,31,16 M16,2h4v14h-4V2z M9,24h18
		c0.553,0,1,0.447,1,1s-0.447,1-1,1H12v1c0,0.553-0.447,1-1,1s-1-0.447-1-1v-1H9c-0.553,0-1-0.447-1-1S8.447,24,9,24 M30,48
		c0,1.944-2.056,4-4,4H10c-1.85,0-4-1.576-4-3.609V39c0-0.553,0.447-1,1-1h22c0.553,0,1,0.447,1,1V48z"/>
	<path clip-path="url(#SVGID_2_)" fill="#58595B" d="M8,48.391C8,49.143,9.065,50,10,50h16c0.841,0,2-1.159,2-2v-8H8V48.391z"/>
</g>
</svg>
