<?xml version="1.0" encoding="utf-8"?>
<!-- Generator: Adobe Illustrator 15.0.0, SVG Export Plug-In  -->
<!DOCTYPE svg PUBLIC "-//W3C//DTD SVG 1.1//EN" "http://www.w3.org/Graphics/SVG/1.1/DTD/svg11.dtd" [
	<!ENTITY ns_flows "http://ns.adobe.com/Flows/1.0/">
]>
<svg version="1.1"
	 xmlns="http://www.w3.org/2000/svg" xmlns:xlink="http://www.w3.org/1999/xlink" xmlns:a="http://ns.adobe.com/AdobeSVGViewerExtensions/3.0/"
	 x="0px" y="0px" width="5736px" height="694px" viewBox="0 0 5736 694" enable-background="new 0 0 5736 694" xml:space="preserve"
	>
<defs>
</defs>
<polygon fill="#1662AE" points="3476.227,213.371 3501.583,213.371 3560.87,454.257 3561.618,454.257 3620.908,213.371 
	3646.262,213.371 3576.159,479.614 3546.329,479.614 "/>
<path fill="#1662AE" d="M3805.133,213.371h29.833l78.679,266.243h-25.356l-21.628-77.561h-93.221l-21.629,77.561h-25.356
	L3805.133,213.371z M3861.441,381.918l-41.02-149.9h-0.745l-41.021,149.9H3861.441z"/>
<g>
	<defs>
		<rect id="SVGID_1_" width="5735.704" height="693.574"/>
	</defs>
	<clipPath id="SVGID_2_">
		<use xlink:href="#SVGID_1_"  overflow="visible"/>
	</clipPath>
	<path clip-path="url(#SVGID_2_)" fill="#1662AE" d="M4189.229,389.375c-3.354,60.782-31.322,94.716-79.052,94.716
		c-54.44,0-85.019-42.139-85.019-137.599s30.578-137.595,85.019-137.595c54.068,0,76.441,38.41,76.441,82.034h-23.865
		c0-36.166-18.27-61.898-52.576-61.898c-38.032,0-61.153,31.323-61.153,117.459c0,86.141,23.121,117.462,61.153,117.462
		c33.562,0,52.576-28.712,55.187-74.579H4189.229z"/>
	<path clip-path="url(#SVGID_2_)" fill="#1662AE" d="M4371.592,213.371h29.832l78.68,266.243h-25.357l-21.628-77.561h-93.22
		l-21.629,77.561h-25.357L4371.592,213.371z M4427.9,381.918l-41.02-149.9h-0.746l-41.02,149.9H4427.9z"/>
	<polygon clip-path="url(#SVGID_2_)" fill="#1662AE" points="4623.314,233.507 4554.7,233.507 4554.7,213.371 4715.79,213.371 
		4715.79,233.507 4647.18,233.507 4647.18,479.614 4623.314,479.614 	"/>
	<rect x="4833.637" y="213.371" clip-path="url(#SVGID_2_)" fill="#1662AE" width="23.865" height="266.243"/>
	<path clip-path="url(#SVGID_2_)" fill="#1662AE" d="M5076.77,208.898c54.439,0,85.018,42.135,85.018,137.595
		c0,95.46-30.578,137.598-85.018,137.598c-54.443,0-85.021-42.138-85.021-137.598
		C4991.748,251.033,5022.326,208.898,5076.77,208.898 M5076.77,463.955c38.032,0,61.153-31.323,61.153-117.462
		c0-86.136-23.121-117.459-61.153-117.459c-38.035,0-61.156,31.323-61.156,117.459
		C5015.613,432.632,5038.734,463.955,5076.77,463.955"/>
	<polygon clip-path="url(#SVGID_2_)" fill="#1662AE" points="5294.557,213.371 5326.627,213.371 5428.426,445.311 5429.17,445.311 
		5429.17,213.371 5453.035,213.371 5453.035,479.614 5420.965,479.614 5319.17,247.678 5318.422,247.678 5318.422,479.614 
		5294.557,479.614 	"/>
	<path clip-path="url(#SVGID_2_)" fill="#1662AE" d="M5704.752,281.611c0-32.815-15.289-52.577-47.73-52.577
		s-50.34,21.254-50.34,47.73c0,79.425,129.021,35.799,129.021,129.393c0,51.459-32.069,77.934-80.543,77.934
		c-49.972,0-77.564-26.849-77.564-79.052v-7.832h23.863v10.068c0,33.933,17.9,56.68,52.953,56.68
		c33.562,0,57.427-16.781,57.427-54.069c0-79.053-129.022-33.933-129.022-130.512c0-41.764,27.223-70.476,73.461-70.476
		c49.592,0,72.34,25.357,72.34,72.713H5704.752z"/>
	<path clip-path="url(#SVGID_2_)" fill="#1963AD" d="M1919.754,39.445h-152.089c0,0-173.89,497.284-183.284,524.611
		c-16.976,49.382-36.334,79.69-92.561,79.69h-45.965l-19.441,49.828h137.708c102.679,0,161.145-84.263,176.589-129.519
		S1919.754,39.445,1919.754,39.445"/>
	<polygon clip-path="url(#SVGID_2_)" fill="#1963AD" points="1579.08,129.925 1504.194,349.167 1397.214,129.925 1217.56,129.925 
		1069.135,563.925 1153.373,563.925 1267.213,230.639 1430.655,563.925 1514.894,563.925 1663.318,129.925 	"/>
	<polygon clip-path="url(#SVGID_2_)" fill="#1963AD" points="2792.73,129.925 2338.748,129.925 2319.902,184.925 2465.627,184.925 
		2336.047,563.925 2494.498,563.925 2624.077,184.925 2773.887,184.925 	"/>
	<polygon clip-path="url(#SVGID_2_)" fill="#1963AD" points="2288.696,184.925 2307.541,129.925 1971.927,129.925 1955.443,129.925 
		1807.018,563.925 2168.896,563.925 2187.741,508.925 1984.314,508.925 2032.462,367.925 2218.724,367.925 2237.569,312.925 
		2051.307,312.925 2095.049,184.925 	"/>
	<path clip-path="url(#SVGID_2_)" fill="#1963AD" d="M873.002,563.925h158.451l-46.648-434H826.354
		c0,0-304.586,515.439-571.981,385.938c-72.055-34.896-62.208-173.813-9.737-266.241c52.286-92.104,162.979-186.128,298.596-142.858
		c71.368,22.77,98.991,90.851,98.991,90.851l95.745-46.069c0,0-28.811-91.222-150.856-119.516
		C405.82-9.999,161.048,63.458,42.846,257.637c-94.564,155.347-25.402,301.855,136.878,339.179
		c120.541,27.726,291.223,10.109,474.136-158.891h205.599L873.002,563.925z M708.998,382.925
		c42.072-46,84.581-99.247,127.081-162.62l17.457,162.62H708.998z"/>
	<path clip-path="url(#SVGID_2_)" fill="#EE3F3D" d="M541.976,273.966c-1.341-5.624-40.02-15.437-47.089-8.773
		c-7.068,6.664-19.471,18.98-24.195,22.945c-4.723,3.965-10.93,6.58-5.942-7.761c4.989-14.341,12.663-32.984,15.519-40.07
		c2.855-7.086-26.076-42.216-32.051-42.216c-5.975,0-49.841,35.13-49.997,42.216c-0.157,7.086-0.408,25.729-1.516,40.07
		c-1.108,14.341-6.204,11.726-9.242,7.761c-3.037-3.965-10.205-16.281-14.44-22.945c-4.236-6.664-45.996,4.194-50.819,8.773
		c-4.823,4.579-8.277,48.59-4.751,52.639c3.526,4.049,22.781,23.79,31.763,32.73c8.982,8.942,7.268,11.052,3.235,20.499
		c-4.033,9.448,1.954,8.268,8.839,6.833c6.885-1.434,20.161-3.964,33.713-7.001c13.552-3.037,6.728,16.368,5.358,22.021
		c-1.358,5.604,1.258,4.987,3.523,4.978c2.261,0.01,4.616,0.626,5.64-4.978c1.033-5.653,2.458-25.059,14.719-22.021
		c12.262,3.037,24.462,5.567,30.737,7.001c6.275,1.435,11.76,2.615,11.743-6.833c-0.016-9.447-0.833-11.557,11.95-20.499
		c12.783-8.94,40.43-28.681,45.677-32.73C529.598,322.556,543.317,279.59,541.976,273.966"/>
	<polygon clip-path="url(#SVGID_2_)" fill="#D1D2D2" points="3145.049,0 2905.988,693.573 2931.199,693.573 3170.26,0 	"/>
</g>
</svg>
